# generated from PmQm by Jehee Lee
:FULLY-SPECIFIED
:DEGREES
210
root 19.4913 28.0526 7.82572 -174.411 71.6131 -173.094
RightUpLeg -57.326 -9.29673 8.05242
RightLeg 81.9624 9.81549 -12.3058
RightFoot -25.407 0.351388 3.27222
RightToes 4.07452e-010 -1.59028e-015 9.93923e-017
Spine 50.327 -2.21038 0.44774
Spine1 15.843 2.57175 -13.6341
HEad -39.9165 2.22231 -9.49922
LeftShoulder1 9.93923e-017 -0 1.22299e-017
LeftArm -15.7703 -6.55064 -75.9956
LeftForeArm -4.69652 -5.19688 -0.767483
LeftHand 0.87308 6.53471 8.30123
RightShoulder 1.98785e-016 -4.96962e-017 1.55301e-017
RightArm 19.7523 17.4416 78.3876
RightForeArm -27.6696 23.2825 -23.2193
RightHand 2.39024 -16.3649 -9.66409
LeftUpLeg -64.1495 -2.40172 -2.83559
LeftLeg 78.1902 -11.7611 5.39726
LeftFoot -13.3207 -0.0436855 5.24355
LeftToes 1.53707e-010 -1.11459e-010 1.58109e-011
211
root 19.3909 26.5885 7.76109 -176.41 71.8637 -174.158
RightUpLeg -60.4652 -8.66313 7.46744
RightLeg 87.941 11.2361 -12.9343
RightFoot -27.3284 0.473697 3.80784
RightToes 4.07452e-010 -1.59028e-015 9.93923e-017
Spine 52.0581 -2.002 -0.263633
Spine1 15.7622 2.78907 -14.5566
HEad -41.1117 0.954809 -7.6816
LeftShoulder1 9.93923e-017 -0 1.22299e-017
LeftArm -15.885 -7.22932 -74.6846
LeftForeArm -3.63352 -2.71122 -1.18059
LeftHand 0.769393 6.11189 9.51161
RightShoulder 1.98785e-016 -4.96962e-017 1.55301e-017
RightArm 18.8507 19.0825 76.6679
RightForeArm -26.9335 23.2546 -23.2452
RightHand 2.34541 -16.286 -9.32985
LeftUpLeg -67.5205 -2.32314 -3.63557
LeftLeg 83.9041 -12.4864 5.77854
LeftFoot -14.5509 0.01007170001 5.25813
LeftToes 1.53707e-010 -1.11459e-010 1.58109e-011
212
root 19.2829 25.0442 7.66319 -178.738 72.3635 -175.048
RightUpLeg -63.3335 -7.90883 6.82424
RightLeg 93.9805 12.7786 -13.3135
RightFoot -28.9018 0.594757 4.29719
RightToes 4.07452e-010 -1.59028e-015 9.93923e-017
Spine 53.7267 -1.64839 -0.872952
Spine1 15.8193 3.07069 -15.2803
HEad -41.9203 -0.198096 -5.91688
LeftShoulder1 9.93923e-017 -0 1.22299e-017
LeftArm -16.334 -7.5616 -73.1298
LeftForeArm -3.38143 -0.705295 -1.4667
LeftHand 0.652299 5.70684 11.4527
RightShoulder 1.98785e-016 -4.96962e-017 1.55301e-017
RightArm 18.9798 20.4233 74.92
RightForeArm -26.5679 22.8696 -23.0204
RightHand 2.29308 -16.2784 -8.76511
LeftUpLeg -70.6324 -2.18091 -4.42416
LeftLeg 89.6283 -13.2973 6.43529
LeftFoot -15.4931 0.0539287 5.43848
LeftToes 1.53707e-010 -1.11459e-010 1.58109e-011
213
root 19.141 23.4709 7.53438 178.721 72.8468 -175.726
RightUpLeg -65.9498 -7.22427 6.14465
RightLeg 99.8076 14.3596 -13.587
RightFoot -29.9775 0.716205 4.83754
RightToes 4.07452e-010 -1.59028e-015 9.93923e-017
Spine 55.2104 -1.46498 -1.18652
Spine1 16.234 3.3736 -16.1486
HEad -42.6147 -1.20523 -3.93288
LeftShoulder1 9.93923e-017 -0 1.22299e-017
LeftArm -17.0971 -7.93658 -71.2083
LeftForeArm -3.4038 -0.292563 -1.18262
LeftHand 0.584538 5.53386 13.1923
RightShoulder 1.98785e-016 -4.96962e-017 1.55301e-017
RightArm 19.8011 21.5113 73.2053
RightForeArm -26.5384 22.2536 -22.631
RightHand 2.21708 -16.1628 -8.13812
LeftUpLeg -73.3326 -2.12018 -5.26261
LeftLeg 94.9976 -14.2247 7.33252
LeftFoot -16.5971 0.1052 5.5248
LeftToes 1.53707e-010 -1.11459e-010 1.58109e-011
214
root 18.9821 21.8741 7.37641 176.563 73.2823 -175.73
RightUpLeg -68.4111 -6.47173 5.52904
RightLeg 105.407 15.9392 -13.6836
RightFoot -30.6645 0.85148 5.51919
RightToes 4.07452e-010 -1.59028e-015 9.93923e-017
Spine 56.3159 -1.53898 -1.19568
Spine1 16.9622 3.7118 -17.2033
HEad -43.1535 -2.00563 -1.86998
LeftShoulder1 9.93923e-017 -0 1.22299e-017
LeftArm -18.0511 -7.97518 -68.9858
LeftForeArm -3.39632 -0.175462 -0.669437
LeftHand 0.568075 5.52044 14.0208
RightShoulder 1.98785e-016 -4.96962e-017 1.55301e-017
RightArm 21.3489 22.4913 71.6935
RightForeArm -26.7406 21.343 -22.0598
RightHand 2.10472 -15.9082 -7.33868
LeftUpLeg -75.9309 -2.1472 -6.03711
LeftLeg 100.137 -15.2751 8.0929
LeftFoot -17.5939 0.145572 5.38292
LeftToes 1.53707e-010 -1.11459e-010 1.58109e-011
215
root 18.8348 20.2629 7.1914 174.348 73.822 -175.356
RightUpLeg -70.496 -5.60238 4.8471
RightLeg 110.915 17.3961 -13.3294
RightFoot -31.2339 0.98983 6.20876
RightToes 4.07452e-010 -1.59028e-015 9.93923e-017
Spine 57.2168 -1.53972 -1.25983
Spine1 17.7955 4.01999 -17.8878
HEad -43.1689 -2.65866 -0.216288
LeftShoulder1 9.93923e-017 -0 1.22299e-017
LeftArm -19.0318 -6.92817 -66.8441
LeftForeArm -4.17794 -0.0285526 -0.209702
LeftHand 0.575777 5.5664 14.3498
RightShoulder 1.98785e-016 -4.96962e-017 1.55301e-017
RightArm 23.5236 23.4249 70.522
RightForeArm -27.0241 20.2862 -21.2967
RightHand 1.98678 -15.7224 -6.30241
LeftUpLeg -78.2834 -2.14672 -6.80683
LeftLeg 105.13 -16.4633 8.7815
LeftFoot -18.2967 0.181071 5.48007
LeftToes 1.53707e-010 -1.11459e-010 1.58109e-011
216
root 18.6561 18.6919 6.99973 169.937 74.3048 -176.289
RightUpLeg -71.6758 -4.9584 3.51443
RightLeg 116.262 18.5554 -12.4693
RightFoot -31.6491 1.08278 6.63591
RightToes 4.07452e-010 -1.59028e-015 9.93923e-017
Spine 58.588 -1.23009 -1.80103
Spine1 18.6025 4.06642 -17.9245
HEad -42.5568 -3.23765 1.23497
LeftShoulder1 9.93923e-017 -0 1.22299e-017
LeftArm -19.7617 -4.92077 -65.0262
LeftForeArm -5.85691 0.0779546 0.101199
LeftHand 0.651505 5.83453 14.0628
RightShoulder 1.98785e-016 -4.96962e-017 1.55301e-017
RightArm 25.2962 24.0619 69.6407
RightForeArm -26.9502 19.6266 -20.3902
RightHand 1.90039 -15.6611 -5.38087
LeftUpLeg -79.5497 -2.12947 -8.09637
LeftLeg 109.515 -17.8503 9.80546
LeftFoot -18.5697 0.217809 6.03307
LeftToes 1.53707e-010 -1.11459e-010 1.58109e-011
217
root 18.3758 17.2056 6.8366 162.593 74.31 -178.985
RightUpLeg -71.653 -4.78216 1.28541
RightLeg 121.198 19.3127 -11.2868
RightFoot -31.624 1.09872 6.74162
RightToes 4.07452e-010 -1.59028e-015 9.93923e-017
Spine 60.9169 -0.751734 -2.74527
Spine1 19.3773 3.75227 -17.6375
HEad -41.7528 -3.66335 3.24657
LeftShoulder1 9.93923e-017 -0 1.22299e-017
LeftArm -19.8208 -3.49995 -63.2518
LeftForeArm -5.73469 0.0829378 0.120625
LeftHand 0.822337 6.42975 12.2612
RightShoulder 1.98785e-016 -4.96962e-017 1.55301e-017
RightArm 26.849 24.025 68.926
RightForeArm -27.2886 19.5107 -19.9845
RightHand 1.85651 -15.5672 -5.01476
LeftUpLeg -79.3757 -2.14563 -10.1415
LeftLeg 112.932 -19.3066 10.9845
LeftFoot -18.011 0.215527 6.67062
LeftToes 1.53707e-010 -1.11459e-010 1.58109e-011
218
root 18.0234 15.7863 6.67975 155.476 74.3981 179.206
RightUpLeg -71.0789 -4.34861 -0.900609
RightLeg 125.601 19.5837 -9.86011
RightFoot -31.0053 1.05215 6.68294
RightToes 4.07452e-010 -1.59028e-015 9.93923e-017
Spine 63.3765 -0.218318 -3.45103
Spine1 20.2689 3.65471 -17.4848
HEad -41.1686 -3.88162 5.66897
LeftShoulder1 9.93923e-017 -0 1.22299e-017
LeftArm -18.8006 -3.20922 -61.7363
LeftForeArm -1.6266 -0.0879074 -0.332739
LeftHand 0.941235 6.84741 10.3881
RightShoulder 1.98785e-016 -4.96962e-017 1.55301e-017
RightArm 28.8652 23.3328 68.2592
RightForeArm -28.2267 19.6945 -20.3116
RightHand 1.84559 -15.4295 -5.11762
LeftUpLeg -78.7572 -1.61318 -12.0907
LeftLeg 115.839 -20.6237 11.7924
LeftFoot -16.9562 0.170528 7.09073
LeftToes 1.53707e-010 -1.11459e-010 1.58109e-011
219
root 17.6766 14.4101 6.47989 150.533 74.8787 179.835
RightUpLeg -70.3325 -3.70716 -2.50251
RightLeg 129.619 19.2488 -8.10095
RightFoot -30.0929 0.97736 6.54704
RightToes 4.07452e-010 -1.59028e-015 9.93923e-017
Spine 65.4928 0.296998 -3.53607
Spine1 21.1668 3.79796 -16.9269
HEad -40.6536 -4.04559 7.37441
LeftShoulder1 9.93923e-017 -0 1.22299e-017
LeftArm -16.9101 -2.69344 -61.3504
LeftForeArm 3.11116 -0.468233 -1.40935
LeftHand 0.805226 6.40965 13.2247
RightShoulder 1.98785e-016 -4.96962e-017 1.55301e-017
RightArm 31.3086 22.3391 67.5393
RightForeArm -28.6051 19.9659 -20.8124
RightHand 1.84659 -15.393 -5.19336
LeftUpLeg -78.1315 -0.530826 -13.3991
LeftLeg 118.648 -21.9182 12.3627
LeftFoot -16.4796 0.148771 7.32605
LeftToes 1.53707e-010 -1.11459e-010 1.58109e-011
